/* XPM */
static char *arson[] = {
/* columns rows colors chars-per-pixel */
"32 28 20 1",
"  c black",
". c #191919",
"X c gray20",
"o c #00007F",
"O c #007F7F",
"+ c #7F0000",
"@ c #7F007F",
"# c #7F7F00",
"$ c #4C4C4C",
"% c #666667",
"& c gray50",
"* c blue",
"= c cyan",
"- c red",
"; c yellow",
": c gray60",
"> c #B2B2B2",
", c gray80",
"< c gray90",
"1 c None",
/* pixels */
"11111111...XXX$$X$XX111111111111",
"1111111..X$o@O*OO*%O$o&111111111",
"1111X..XX$%%**&:*:*>:&%o11111111",
"1111..XX$%o@&&&*:*&=*=:%$$111111",
"11X..XXX$$$%&:&:::*>=::=:#X11111",
"11X.XXX$$$%%&*&*>*:>>*>==:$X1111",
"1..XX.XX$+$%&*&&:*>*>*,>:::#.111",
"1.XXXXX#X$$%&:&&::>::=>=:;;:$.11",
"..$XX$XXX+$%%%$%@::>>=>>>:::-X11",
".XX$$%X$X$$$Xoo.$o*&>>>>:;;::$.1",
".+$$$+$%$XXX.......oO,;:::#:#&X.",
".$@%$%$+$X$X.......oO:::#::#&#X.",
"X#&&%&&&$@oX...$1X...X&&:-&#-#@X",
"X%-&:##-&#$...111&...o%##%#%&#+.",
".#>;:;&:>;%..o.11....X+$%+$+$#$X",
".%>>>>>>>>&XX..XX.o..X%$$$$$+$+X",
".$>>>,,,,,,&$XXX....X$$$X$$$+X+.",
"1.>,,,,,,,<,:$O$X.Xo%%%$+$$$$$XX",
"11$,,<,<,<<<<,:O%$&&#:&&%$$+$XX.",
"11#:<,<<<<<<<<<,,,,;:&&#%#%%$$..",
"11.$,<<<<<<<<<,<,<,>>:#::#%%$+.1",
"111.%,<<<<<<<<<<,<,,>>::&&&%#X.1",
"1111X%,<<<<<<<<<<<,,>>>::&&%$.11",
"11111X%><<<<,<<,<,,,>>:::&:$..11",
"111111XX:,<<<<<<<<,,,,,>:#$.1111",
"11111111X%:,<<<<<<=,,=,>:+.X1111",
"1111111111o$&:,,,,,>>O%XX1111111",
"111111111111oX$%%O%%%oXX11111111"
};
